PathFileType	4	(X/Y/Z)	c:/Users/goper/Files/vsCode/490R/osim_files/C04/C04_Slow_04.trc
DataRate	CameraRate	NumFrames	NumMarkers	Units                	OrigDataRate	OrigDataStartFrame	OrigNumFrames
250.00	250.00	9	36	mm	250.0	1870	3738
                Frame#	Time	LPSIS			LASIS			LTH1			LTH2			LTH3			LTH4			LLFE			LMFE			LSH1			LSH2			LSH3			LSH4			LLMAL			LMMAL			LCAL			LMTP5			LTOE			LMTP1			RPSIS			RASIS			RTH1			RTH2			RTH3			RTH4			RLFE			RMFE			RSH1			RSH2			RSH3			RSH4			RLMAL			RMMAL			RCAL			RMTP1			RTOE			RMTP5		
		X1	Y1	Z1	X2	Y2	Z2	X3	Y3	Z3	X4	Y4	Z4	X5	Y5	Z5	X6	Y6	Z6	X7	Y7	Z7	X8	Y8	Z8	X9	Y9	Z9	X10	Y10	Z10	X11	Y11	Z11	X12	Y12	Z12	X13	Y13	Z13	X14	Y14	Z14	X15	Y15	Z15	X16	Y16	Z16	X17	Y17	Z17	X18	Y18	Z18	X19	Y19	Z19	X20	Y20	Z20	X21	Y21	Z21	X22	Y22	Z22	X23	Y23	Z23	X24	Y24	Z24	X25	Y25	Z25	X26	Y26	Z26	X27	Y27	Z27	X28	Y28	Z28	X29	Y29	Z29	X30	Y30	Z30	X31	Y31	Z31	X32	Y32	Z32	X33	Y33	Z33	X34	Y34	Z34	X35	Y35	Z35	X36	Y36	Z36

1870	7.47600	-69.12166	976.58545	310.92621	-237.29343	966.66089	387.25421	-144.80719	716.05731	448.54791	-156.37053	656.18939	431.64307	-209.31651	733.11407	447.16641	-229.28651	676.39960	430.40353	-205.87189	459.21616	391.95938	-202.33504	452.31104	275.30777	-151.32582	355.94400	397.86035	-141.01634	309.10126	392.25348	-203.17009	350.94482	395.23865	-200.91010	304.16266	389.92068	-158.17627	75.04404	357.47910	-155.15645	95.89242	268.01218	-86.78173	50.52527	314.15237	-292.21011	22.13490	351.61523	-309.56403	49.19189	295.77856	-273.67773	21.51582	246.38266	-67.97710	975.52594	235.91579	-235.76151	955.63135	173.86421	-167.27243	717.75232	99.35370	-185.89482	659.30194	108.04128	-229.27953	741.18781	103.04932	-257.60376	685.76709	111.25508	-302.59146	473.63235	127.33174	-310.58069	467.29520	241.45067	-178.70866	417.85187	123.62385	-151.70134	381.41229	127.90158	-223.89807	375.03528	116.43820	-188.62750	344.03827	120.55040	-12.25468	216.76215	151.56944	-39.49515	213.61899	239.06419	45.80338	235.13344	208.52861	-87.91060	86.72630	225.67543	-116.28101	80.79008	178.98285	-64.43563	82.69714	124.70084
1871	7.48000	-72.42662	976.82440	310.77194	-240.77328	967.36255	386.95590	-147.10686	716.36908	448.49268	-158.54578	656.43134	431.48676	-211.68806	733.12604	447.19843	-231.51328	676.32666	430.38309	-207.13972	459.19754	391.98438	-203.66187	452.39005	275.31573	-152.21182	356.10208	397.87109	-141.81429	309.26373	392.27386	-204.10962	350.81799	395.13138	-201.71120	304.09921	389.94498	-158.30586	75.07205	357.42972	-155.25775	95.95631	267.97812	-86.84432	50.57904	314.10904	-292.21561	22.02622	351.65485	-309.63629	49.04794	295.82672	-273.68823	21.51364	246.39009	-71.44540	975.80743	235.76253	-239.12305	955.98297	173.99110	-171.87085	718.10059	99.19122	-190.98102	659.42017	107.50931	-233.52625	741.99902	103.19154	-262.21091	686.61725	111.07378	-308.85803	475.06458	127.54015	-316.80624	468.72589	241.53476	-186.16199	417.70364	123.56155	-158.95845	381.17844	128.30144	-230.92075	374.73776	114.80694	-196.08040	344.51596	119.52264	-21.79114	214.18651	151.96111	-49.60928	211.15514	239.07008	36.23128	230.86641	208.69110	-100.70022	85.53268	225.47169	-129.24126	80.28223	178.47511	-77.10057	81.45263	124.29729
1872	7.48400	-75.73988	977.09082	310.62131	-243.96558	967.56726	387.18430	-149.48300	716.61285	448.34320	-160.55273	656.71301	431.43008	-214.02409	733.22058	447.27386	-233.78423	676.16016	430.30490	-208.33810	459.24561	392.08276	-205.04073	452.45966	275.32120	-153.13403	356.22147	397.79190	-142.49199	309.51447	392.20145	-205.01045	350.81235	395.13950	-202.51624	304.07303	389.83997	-158.39857	75.12909	357.38055	-155.34744	96.03056	267.93256	-86.90012	50.69863	314.09995	-292.26926	21.95687	351.65524	-309.68893	48.91059	295.90448	-273.74551	21.49527	246.38649	-74.84840	976.13965	235.60579	-242.69279	956.54144	174.19920	-176.21840	718.58087	98.90435	-195.45029	660.07544	107.13741	-237.68864	742.82404	103.25583	-266.77304	687.45990	110.85695	-315.01285	476.52383	127.84251	-324.47781	469.60721	241.96777	-192.56621	417.83151	124.40143	-165.93727	380.94522	128.65022	-237.97772	375.62460	115.37327	-203.68893	344.64450	119.58743	-30.55238	212.00781	152.73143	-59.63935	208.73103	239.14767	26.62851	226.63730	208.81514	-113.72306	84.25922	225.02191	-142.22231	79.81219	178.29767	-90.18583	79.85561	124.01494
1873	7.48800	-79.15526	977.28986	310.46350	-247.27838	967.72919	387.30164	-151.78127	716.92145	448.27173	-160.83432	657.44110	432.00391	-216.36690	733.26508	447.25363	-235.92435	676.14606	430.35367	-209.69713	459.24414	391.98032	-206.55687	452.38672	275.32727	-154.29813	356.32117	397.71530	-143.25836	309.78696	392.08081	-205.81010	350.93964	395.29523	-203.15742	304.15497	389.86780	-158.52861	75.20649	357.32291	-155.88148	95.91024	267.73914	-86.96482	50.85926	314.08145	-292.28003	21.90301	351.68719	-309.73712	48.82568	295.88470	-273.79385	21.48989	246.38251	-78.30069	976.35803	235.48624	-246.13387	956.72614	174.38103	-180.69487	718.97852	98.71609	-200.47308	660.55878	107.02984	-241.77127	743.65948	103.24629	-271.29099	688.29407	110.60631	-321.06082	477.97153	128.17108	-330.20651	471.27505	241.87663	-198.93732	417.77100	124.92779	-173.59119	380.25586	128.98500	-245.57785	377.04214	115.43870	-211.43777	344.70456	119.69353	-42.32866	208.22882	151.88914	-69.65595	206.29948	239.29300	16.72281	222.18382	208.90178	-126.40688	83.08707	224.75327	-155.15045	79.41297	177.77579	-103.21267	78.45142	123.70197
1874	7.49200	-82.34422	977.61902	310.34811	-250.40718	967.80249	387.28098	-154.08604	717.18799	448.18655	-163.42461	657.45105	431.78275	-218.73476	733.31329	447.22400	-238.07921	676.18060	430.36136	-210.91006	459.36920	392.06882	-207.90935	452.38916	275.28870	-155.16411	356.57016	397.64307	-144.05804	310.03168	392.03387	-206.80980	350.91168	395.07663	-203.91537	304.24399	389.88837	-158.61797	75.32740	357.25363	-154.98111	96.21532	267.99451	-87.00635	51.04451	314.05780	-292.33505	21.87332	351.64456	-309.78360	48.77214	295.84225	-274.84027	22.47073	245.47472	-81.54539	976.66357	235.29594	-251.92062	958.10925	173.34567	-185.02913	719.45282	98.53087	-205.23901	661.10876	106.83072	-245.77876	744.50220	103.16703	-275.76562	689.11877	110.32355	-327.65604	479.02655	127.71919	-335.90186	472.86838	241.84224	-205.89049	417.62039	125.27756	-180.54225	379.93991	129.17223	-252.63736	377.02444	115.79050	-219.14793	344.79852	119.72436	-52.50111	205.33815	151.94550	-79.88000	203.77635	239.30472	6.84209	218.00182	208.83005	-139.51697	81.87437	224.21959	-167.86002	78.69354	177.33574	-116.08359	76.97556	123.28038
1875	7.49600	-85.61587	977.84650	310.17447	-253.63741	967.82050	387.36044	-156.49214	717.43652	448.00317	-165.62416	657.69617	431.61703	-221.06786	733.38788	447.18091	-240.44019	676.06287	430.08890	-212.29709	459.30356	391.94003	-209.24429	452.44000	275.20389	-155.93315	356.88248	397.55051	-144.91266	310.25119	391.88663	-207.82443	350.91342	394.95343	-204.85606	304.23203	389.76758	-158.74275	75.40150	357.19141	-155.07454	96.30085	267.92673	-87.07182	51.29557	314.07758	-292.40472	21.86219	351.63196	-309.82111	48.71713	295.80099	-273.72644	21.42979	246.52760	-84.90417	976.94525	235.14050	-253.02313	957.35950	174.43890	-189.39316	719.87653	98.37708	-209.87086	661.67487	106.54064	-249.71570	745.34888	103.02213	-280.19785	689.93323	110.01039	-333.69574	480.43811	127.86790	-341.70773	474.45480	241.79771	-212.51503	417.35785	125.51008	-187.80534	379.25281	129.62463	-259.71210	377.54813	115.02128	-226.31837	344.94012	119.43056	-62.70158	202.39339	151.95142	-90.38174	201.13535	239.32080	-3.05473	213.41605	209.21887	-152.12178	80.64311	224.18173	-180.90984	78.22206	176.73557	-129.19745	75.51366	122.97609
1876	7.50000	-88.92981	978.01935	310.01535	-256.80347	967.81805	387.27759	-158.86880	717.65363	447.84692	-167.79242	657.89594	431.41251	-223.55000	733.35858	447.07858	-242.61388	676.00507	430.06882	-213.53847	459.39737	391.95718	-210.79991	452.33163	275.18228	-156.86026	357.11517	397.46094	-145.58017	310.52710	391.79953	-208.61427	351.09427	395.12576	-206.07054	303.98587	389.28818	-158.87848	75.48534	357.14551	-155.24133	96.35456	267.86469	-87.14657	51.48606	314.04343	-292.46634	21.84118	351.60025	-309.92487	48.68846	295.72885	-273.76736	21.41967	246.53397	-88.31259	977.18054	235.04955	-258.49939	958.60345	173.64909	-193.33800	720.38788	98.05524	-214.63290	662.17853	106.31552	-253.58667	746.19611	102.81567	-284.58853	690.73645	109.66856	-339.73010	481.72406	127.92239	-347.79865	475.80792	241.89632	-219.09532	416.94040	125.79756	-194.97287	378.51077	129.82643	-266.98090	377.84744	115.78794	-234.75374	344.44400	119.84718	-73.03418	199.27565	152.04840	-100.76331	198.44766	239.35783	-13.25762	208.86583	209.32698	-165.11703	79.28111	223.68123	-193.84512	77.78484	176.39139	-142.26099	73.91486	122.58524
1877	7.50400	-92.13300	978.27350	309.84824	-259.99060	967.86029	387.25635	-161.25421	717.90039	447.67075	-169.97821	658.17841	431.21353	-226.19566	733.27399	446.87695	-244.84856	675.99976	430.03479	-214.98351	459.43002	391.85104	-212.14919	452.29340	275.08771	-157.84450	357.35028	397.34247	-146.40916	310.80585	391.70474	-209.66187	351.03394	394.95554	-207.00383	303.95700	389.09412	-158.98471	75.63467	357.08374	-155.34743	96.46380	267.79636	-87.45114	51.58336	313.91608	-292.56000	21.79961	351.57306	-309.99582	48.65301	295.72006	-273.77219	21.42787	246.50346	-91.63197	977.44440	234.94267	-261.79376	958.73883	173.76302	-197.01740	721.09003	97.67096	-219.40489	662.64673	105.99861	-257.39624	747.04065	102.55175	-288.93845	691.52753	109.29975	-345.68625	483.11987	128.07072	-353.74783	477.15842	241.94858	-225.67711	416.45029	125.90354	-202.39189	377.42020	129.41484	-274.59750	378.54813	116.37515	-242.56618	344.14569	119.90756	-83.46358	196.14873	152.08266	-111.22479	195.80978	239.41364	-23.53353	204.35481	209.56650	-178.31802	78.01318	223.21704	-207.10329	77.08937	175.89984	-155.21277	72.47182	122.13270
1878	7.50800	-95.38066	978.40338	309.77939	-263.04858	967.86987	387.46127	-163.60782	718.09454	447.46555	-172.24327	658.30444	430.97043	-228.67902	733.22693	446.76538	-247.16826	675.89685	429.76654	-216.27463	459.47281	391.76898	-213.55618	452.28497	274.98520	-158.78467	357.58041	397.23141	-147.38017	310.97528	391.53918	-210.66467	350.96930	394.74612	-207.24945	304.42270	389.52170	-159.08217	75.75101	357.02878	-155.48862	96.51544	267.68063	-87.62466	51.76163	313.96317	-292.53754	21.78053	351.57877	-310.00943	48.60182	295.67123	-273.82635	21.41618	246.51521	-94.93604	977.62671	234.82788	-264.93591	958.85962	173.84413	-202.02644	721.19891	98.10696	-224.02002	663.13666	105.62193	-261.14905	747.87927	102.23445	-293.24860	692.30566	108.90569	-351.67136	484.30261	128.10023	-359.54523	478.53302	241.97292	-232.15665	415.88297	126.06178	-210.05525	376.08456	129.43448	-282.22598	379.55194	116.42957	-250.44440	343.67230	119.96467	-93.82792	192.96106	152.12592	-121.90456	193.06062	239.39888	-33.90196	199.67368	209.71614	-191.51830	76.70689	222.78081	-220.07146	76.49348	175.37318	-168.21671	71.04236	121.65559
